<mxfile host="Electron" modified="2025-03-27T04:02:50.488Z" agent="Mozilla/5.0 (Windows NT 10.0; Win64; x64) AppleWebKit/537.36 (KHTML, like Gecko) draw.io/21.6.8 Chrome/114.0.5735.289 Electron/25.5.0 Safari/537.36" etag="IFdNDvjgfhVWaWUbG8Jf" version="21.6.8" type="device">
  <diagram name="Page-1" id="3SA_PlsY-lDh6BKdHhQn">
    <mxGraphModel dx="2927" dy="1338" grid="1" gridSize="10" guides="1" tooltips="1" connect="1" arrows="1" fold="1" page="1" pageScale="1" pageWidth="827" pageHeight="1169" math="0" shadow="0">
      <root>
        <mxCell id="0" />
        <mxCell id="1" parent="0" />
        <mxCell id="EZS8QOaWmPaTbYmhqYIM-8" value="Appointment" style="swimlane;fontStyle=1;align=center;verticalAlign=top;childLayout=stackLayout;horizontal=1;startSize=26;horizontalStack=0;resizeParent=1;resizeParentMax=0;resizeLast=0;collapsible=1;marginBottom=0;whiteSpace=wrap;html=1;" vertex="1" parent="1">
          <mxGeometry x="330" y="400" width="160" height="164" as="geometry" />
        </mxCell>
        <mxCell id="EZS8QOaWmPaTbYmhqYIM-9" value="+ date: Date" style="text;strokeColor=none;fillColor=none;align=left;verticalAlign=top;spacingLeft=4;spacingRight=4;overflow=hidden;rotatable=0;points=[[0,0.5],[1,0.5]];portConstraint=eastwest;whiteSpace=wrap;html=1;" vertex="1" parent="EZS8QOaWmPaTbYmhqYIM-8">
          <mxGeometry y="26" width="160" height="26" as="geometry" />
        </mxCell>
        <mxCell id="EZS8QOaWmPaTbYmhqYIM-12" value="+ details: String" style="text;strokeColor=none;fillColor=none;align=left;verticalAlign=top;spacingLeft=4;spacingRight=4;overflow=hidden;rotatable=0;points=[[0,0.5],[1,0.5]];portConstraint=eastwest;whiteSpace=wrap;html=1;" vertex="1" parent="EZS8QOaWmPaTbYmhqYIM-8">
          <mxGeometry y="52" width="160" height="26" as="geometry" />
        </mxCell>
        <mxCell id="EZS8QOaWmPaTbYmhqYIM-10" value="" style="line;strokeWidth=1;fillColor=none;align=left;verticalAlign=middle;spacingTop=-1;spacingLeft=3;spacingRight=3;rotatable=0;labelPosition=right;points=[];portConstraint=eastwest;strokeColor=inherit;" vertex="1" parent="EZS8QOaWmPaTbYmhqYIM-8">
          <mxGeometry y="78" width="160" height="8" as="geometry" />
        </mxCell>
        <mxCell id="EZS8QOaWmPaTbYmhqYIM-11" value="- schedule(): void" style="text;strokeColor=none;fillColor=none;align=left;verticalAlign=top;spacingLeft=4;spacingRight=4;overflow=hidden;rotatable=0;points=[[0,0.5],[1,0.5]];portConstraint=eastwest;whiteSpace=wrap;html=1;" vertex="1" parent="EZS8QOaWmPaTbYmhqYIM-8">
          <mxGeometry y="86" width="160" height="26" as="geometry" />
        </mxCell>
        <mxCell id="EZS8QOaWmPaTbYmhqYIM-13" value="- getDate(): Date" style="text;strokeColor=none;fillColor=none;align=left;verticalAlign=top;spacingLeft=4;spacingRight=4;overflow=hidden;rotatable=0;points=[[0,0.5],[1,0.5]];portConstraint=eastwest;whiteSpace=wrap;html=1;" vertex="1" parent="EZS8QOaWmPaTbYmhqYIM-8">
          <mxGeometry y="112" width="160" height="26" as="geometry" />
        </mxCell>
        <mxCell id="EZS8QOaWmPaTbYmhqYIM-14" value="- getDetail(): String" style="text;strokeColor=none;fillColor=none;align=left;verticalAlign=top;spacingLeft=4;spacingRight=4;overflow=hidden;rotatable=0;points=[[0,0.5],[1,0.5]];portConstraint=eastwest;whiteSpace=wrap;html=1;" vertex="1" parent="EZS8QOaWmPaTbYmhqYIM-8">
          <mxGeometry y="138" width="160" height="26" as="geometry" />
        </mxCell>
        <mxCell id="EZS8QOaWmPaTbYmhqYIM-15" value="InPersonAppointment" style="swimlane;fontStyle=1;align=center;verticalAlign=top;childLayout=stackLayout;horizontal=1;startSize=26;horizontalStack=0;resizeParent=1;resizeParentMax=0;resizeLast=0;collapsible=1;marginBottom=0;whiteSpace=wrap;html=1;" vertex="1" parent="1">
          <mxGeometry x="540" y="630" width="160" height="60" as="geometry" />
        </mxCell>
        <mxCell id="EZS8QOaWmPaTbYmhqYIM-17" value="" style="line;strokeWidth=1;fillColor=none;align=left;verticalAlign=middle;spacingTop=-1;spacingLeft=3;spacingRight=3;rotatable=0;labelPosition=right;points=[];portConstraint=eastwest;strokeColor=inherit;" vertex="1" parent="EZS8QOaWmPaTbYmhqYIM-15">
          <mxGeometry y="26" width="160" height="8" as="geometry" />
        </mxCell>
        <mxCell id="EZS8QOaWmPaTbYmhqYIM-18" value="- schedule(): void" style="text;strokeColor=none;fillColor=none;align=left;verticalAlign=top;spacingLeft=4;spacingRight=4;overflow=hidden;rotatable=0;points=[[0,0.5],[1,0.5]];portConstraint=eastwest;whiteSpace=wrap;html=1;" vertex="1" parent="EZS8QOaWmPaTbYmhqYIM-15">
          <mxGeometry y="34" width="160" height="26" as="geometry" />
        </mxCell>
        <mxCell id="EZS8QOaWmPaTbYmhqYIM-19" value="VirtualAppointment" style="swimlane;fontStyle=1;align=center;verticalAlign=top;childLayout=stackLayout;horizontal=1;startSize=26;horizontalStack=0;resizeParent=1;resizeParentMax=0;resizeLast=0;collapsible=1;marginBottom=0;whiteSpace=wrap;html=1;" vertex="1" parent="1">
          <mxGeometry x="240" y="620" width="160" height="60" as="geometry" />
        </mxCell>
        <mxCell id="EZS8QOaWmPaTbYmhqYIM-20" value="" style="line;strokeWidth=1;fillColor=none;align=left;verticalAlign=middle;spacingTop=-1;spacingLeft=3;spacingRight=3;rotatable=0;labelPosition=right;points=[];portConstraint=eastwest;strokeColor=inherit;" vertex="1" parent="EZS8QOaWmPaTbYmhqYIM-19">
          <mxGeometry y="26" width="160" height="8" as="geometry" />
        </mxCell>
        <mxCell id="EZS8QOaWmPaTbYmhqYIM-21" value="- schedule(): void" style="text;strokeColor=none;fillColor=none;align=left;verticalAlign=top;spacingLeft=4;spacingRight=4;overflow=hidden;rotatable=0;points=[[0,0.5],[1,0.5]];portConstraint=eastwest;whiteSpace=wrap;html=1;" vertex="1" parent="EZS8QOaWmPaTbYmhqYIM-19">
          <mxGeometry y="34" width="160" height="26" as="geometry" />
        </mxCell>
        <mxCell id="EZS8QOaWmPaTbYmhqYIM-22" value="AppointmentType" style="swimlane;fontStyle=1;align=center;verticalAlign=top;childLayout=stackLayout;horizontal=1;startSize=26;horizontalStack=0;resizeParent=1;resizeParentMax=0;resizeLast=0;collapsible=1;marginBottom=0;whiteSpace=wrap;html=1;" vertex="1" parent="1">
          <mxGeometry x="620" y="410" width="160" height="86" as="geometry" />
        </mxCell>
        <mxCell id="EZS8QOaWmPaTbYmhqYIM-23" value="InPerson" style="text;strokeColor=none;fillColor=none;align=left;verticalAlign=top;spacingLeft=4;spacingRight=4;overflow=hidden;rotatable=0;points=[[0,0.5],[1,0.5]];portConstraint=eastwest;whiteSpace=wrap;html=1;" vertex="1" parent="EZS8QOaWmPaTbYmhqYIM-22">
          <mxGeometry y="26" width="160" height="26" as="geometry" />
        </mxCell>
        <mxCell id="EZS8QOaWmPaTbYmhqYIM-26" value="Virtual" style="text;strokeColor=none;fillColor=none;align=left;verticalAlign=top;spacingLeft=4;spacingRight=4;overflow=hidden;rotatable=0;points=[[0,0.5],[1,0.5]];portConstraint=eastwest;whiteSpace=wrap;html=1;" vertex="1" parent="EZS8QOaWmPaTbYmhqYIM-22">
          <mxGeometry y="52" width="160" height="26" as="geometry" />
        </mxCell>
        <mxCell id="EZS8QOaWmPaTbYmhqYIM-24" value="" style="line;strokeWidth=1;fillColor=none;align=left;verticalAlign=middle;spacingTop=-1;spacingLeft=3;spacingRight=3;rotatable=0;labelPosition=right;points=[];portConstraint=eastwest;strokeColor=inherit;" vertex="1" parent="EZS8QOaWmPaTbYmhqYIM-22">
          <mxGeometry y="78" width="160" height="8" as="geometry" />
        </mxCell>
        <mxCell id="EZS8QOaWmPaTbYmhqYIM-27" value="AppointmentFactory" style="swimlane;fontStyle=1;align=center;verticalAlign=top;childLayout=stackLayout;horizontal=1;startSize=26;horizontalStack=0;resizeParent=1;resizeParentMax=0;resizeLast=0;collapsible=1;marginBottom=0;whiteSpace=wrap;html=1;" vertex="1" parent="1">
          <mxGeometry x="-300" y="630" width="380" height="60" as="geometry" />
        </mxCell>
        <mxCell id="EZS8QOaWmPaTbYmhqYIM-29" value="" style="line;strokeWidth=1;fillColor=none;align=left;verticalAlign=middle;spacingTop=-1;spacingLeft=3;spacingRight=3;rotatable=0;labelPosition=right;points=[];portConstraint=eastwest;strokeColor=inherit;" vertex="1" parent="EZS8QOaWmPaTbYmhqYIM-27">
          <mxGeometry y="26" width="380" height="8" as="geometry" />
        </mxCell>
        <mxCell id="EZS8QOaWmPaTbYmhqYIM-30" value="- createAppointment(AppointmentType): Appointment" style="text;strokeColor=none;fillColor=none;align=left;verticalAlign=top;spacingLeft=4;spacingRight=4;overflow=hidden;rotatable=0;points=[[0,0.5],[1,0.5]];portConstraint=eastwest;whiteSpace=wrap;html=1;" vertex="1" parent="EZS8QOaWmPaTbYmhqYIM-27">
          <mxGeometry y="34" width="380" height="26" as="geometry" />
        </mxCell>
        <mxCell id="EZS8QOaWmPaTbYmhqYIM-31" value="AppointmentBuilder" style="swimlane;fontStyle=1;align=center;verticalAlign=top;childLayout=stackLayout;horizontal=1;startSize=26;horizontalStack=0;resizeParent=1;resizeParentMax=0;resizeLast=0;collapsible=1;marginBottom=0;whiteSpace=wrap;html=1;" vertex="1" parent="1">
          <mxGeometry x="140" y="832" width="230" height="138" as="geometry" />
        </mxCell>
        <mxCell id="EZS8QOaWmPaTbYmhqYIM-32" value="+ appointment: Appointment" style="text;strokeColor=none;fillColor=none;align=left;verticalAlign=top;spacingLeft=4;spacingRight=4;overflow=hidden;rotatable=0;points=[[0,0.5],[1,0.5]];portConstraint=eastwest;whiteSpace=wrap;html=1;" vertex="1" parent="EZS8QOaWmPaTbYmhqYIM-31">
          <mxGeometry y="26" width="230" height="26" as="geometry" />
        </mxCell>
        <mxCell id="EZS8QOaWmPaTbYmhqYIM-33" value="" style="line;strokeWidth=1;fillColor=none;align=left;verticalAlign=middle;spacingTop=-1;spacingLeft=3;spacingRight=3;rotatable=0;labelPosition=right;points=[];portConstraint=eastwest;strokeColor=inherit;" vertex="1" parent="EZS8QOaWmPaTbYmhqYIM-31">
          <mxGeometry y="52" width="230" height="8" as="geometry" />
        </mxCell>
        <mxCell id="EZS8QOaWmPaTbYmhqYIM-34" value="- setDate(): AppointmentBuilder" style="text;strokeColor=none;fillColor=none;align=left;verticalAlign=top;spacingLeft=4;spacingRight=4;overflow=hidden;rotatable=0;points=[[0,0.5],[1,0.5]];portConstraint=eastwest;whiteSpace=wrap;html=1;" vertex="1" parent="EZS8QOaWmPaTbYmhqYIM-31">
          <mxGeometry y="60" width="230" height="26" as="geometry" />
        </mxCell>
        <mxCell id="EZS8QOaWmPaTbYmhqYIM-35" value="- setDetail(): AppointmentBuilder" style="text;strokeColor=none;fillColor=none;align=left;verticalAlign=top;spacingLeft=4;spacingRight=4;overflow=hidden;rotatable=0;points=[[0,0.5],[1,0.5]];portConstraint=eastwest;whiteSpace=wrap;html=1;" vertex="1" parent="EZS8QOaWmPaTbYmhqYIM-31">
          <mxGeometry y="86" width="230" height="26" as="geometry" />
        </mxCell>
        <mxCell id="EZS8QOaWmPaTbYmhqYIM-36" value="- build(): Appointment" style="text;strokeColor=none;fillColor=none;align=left;verticalAlign=top;spacingLeft=4;spacingRight=4;overflow=hidden;rotatable=0;points=[[0,0.5],[1,0.5]];portConstraint=eastwest;whiteSpace=wrap;html=1;" vertex="1" parent="EZS8QOaWmPaTbYmhqYIM-31">
          <mxGeometry y="112" width="230" height="26" as="geometry" />
        </mxCell>
        <mxCell id="EZS8QOaWmPaTbYmhqYIM-37" value="AppointmentManager" style="swimlane;fontStyle=1;align=center;verticalAlign=top;childLayout=stackLayout;horizontal=1;startSize=26;horizontalStack=0;resizeParent=1;resizeParentMax=0;resizeLast=0;collapsible=1;marginBottom=0;whiteSpace=wrap;html=1;" vertex="1" parent="1">
          <mxGeometry x="-130" y="400" width="320" height="164" as="geometry" />
        </mxCell>
        <mxCell id="EZS8QOaWmPaTbYmhqYIM-38" value="+ instance: AppointmentManager" style="text;strokeColor=none;fillColor=none;align=left;verticalAlign=top;spacingLeft=4;spacingRight=4;overflow=hidden;rotatable=0;points=[[0,0.5],[1,0.5]];portConstraint=eastwest;whiteSpace=wrap;html=1;" vertex="1" parent="EZS8QOaWmPaTbYmhqYIM-37">
          <mxGeometry y="26" width="320" height="26" as="geometry" />
        </mxCell>
        <mxCell id="EZS8QOaWmPaTbYmhqYIM-41" value="+ appointments: List&amp;lt;Appointment&amp;gt;" style="text;strokeColor=none;fillColor=none;align=left;verticalAlign=top;spacingLeft=4;spacingRight=4;overflow=hidden;rotatable=0;points=[[0,0.5],[1,0.5]];portConstraint=eastwest;whiteSpace=wrap;html=1;" vertex="1" parent="EZS8QOaWmPaTbYmhqYIM-37">
          <mxGeometry y="52" width="320" height="26" as="geometry" />
        </mxCell>
        <mxCell id="EZS8QOaWmPaTbYmhqYIM-39" value="" style="line;strokeWidth=1;fillColor=none;align=left;verticalAlign=middle;spacingTop=-1;spacingLeft=3;spacingRight=3;rotatable=0;labelPosition=right;points=[];portConstraint=eastwest;strokeColor=inherit;" vertex="1" parent="EZS8QOaWmPaTbYmhqYIM-37">
          <mxGeometry y="78" width="320" height="8" as="geometry" />
        </mxCell>
        <mxCell id="EZS8QOaWmPaTbYmhqYIM-40" value="- getInstance(): AppointmentManager" style="text;strokeColor=none;fillColor=none;align=left;verticalAlign=top;spacingLeft=4;spacingRight=4;overflow=hidden;rotatable=0;points=[[0,0.5],[1,0.5]];portConstraint=eastwest;whiteSpace=wrap;html=1;" vertex="1" parent="EZS8QOaWmPaTbYmhqYIM-37">
          <mxGeometry y="86" width="320" height="26" as="geometry" />
        </mxCell>
        <mxCell id="EZS8QOaWmPaTbYmhqYIM-43" value="- addAppointment(Appointment appointment): void" style="text;strokeColor=none;fillColor=none;align=left;verticalAlign=top;spacingLeft=4;spacingRight=4;overflow=hidden;rotatable=0;points=[[0,0.5],[1,0.5]];portConstraint=eastwest;whiteSpace=wrap;html=1;" vertex="1" parent="EZS8QOaWmPaTbYmhqYIM-37">
          <mxGeometry y="112" width="320" height="26" as="geometry" />
        </mxCell>
        <mxCell id="EZS8QOaWmPaTbYmhqYIM-44" value="- getAppointments(): List&amp;lt;Appointment&amp;gt;" style="text;strokeColor=none;fillColor=none;align=left;verticalAlign=top;spacingLeft=4;spacingRight=4;overflow=hidden;rotatable=0;points=[[0,0.5],[1,0.5]];portConstraint=eastwest;whiteSpace=wrap;html=1;" vertex="1" parent="EZS8QOaWmPaTbYmhqYIM-37">
          <mxGeometry y="138" width="320" height="26" as="geometry" />
        </mxCell>
        <mxCell id="EZS8QOaWmPaTbYmhqYIM-45" value="&amp;lt;&amp;lt;Observer&amp;gt;&amp;gt;" style="swimlane;fontStyle=1;align=center;verticalAlign=top;childLayout=stackLayout;horizontal=1;startSize=26;horizontalStack=0;resizeParent=1;resizeParentMax=0;resizeLast=0;collapsible=1;marginBottom=0;whiteSpace=wrap;html=1;" vertex="1" parent="1">
          <mxGeometry x="-180" y="1362" width="240" height="60" as="geometry" />
        </mxCell>
        <mxCell id="EZS8QOaWmPaTbYmhqYIM-47" value="" style="line;strokeWidth=1;fillColor=none;align=left;verticalAlign=middle;spacingTop=-1;spacingLeft=3;spacingRight=3;rotatable=0;labelPosition=right;points=[];portConstraint=eastwest;strokeColor=inherit;" vertex="1" parent="EZS8QOaWmPaTbYmhqYIM-45">
          <mxGeometry y="26" width="240" height="8" as="geometry" />
        </mxCell>
        <mxCell id="EZS8QOaWmPaTbYmhqYIM-48" value="- update(String message): void" style="text;strokeColor=none;fillColor=none;align=left;verticalAlign=top;spacingLeft=4;spacingRight=4;overflow=hidden;rotatable=0;points=[[0,0.5],[1,0.5]];portConstraint=eastwest;whiteSpace=wrap;html=1;" vertex="1" parent="EZS8QOaWmPaTbYmhqYIM-45">
          <mxGeometry y="34" width="240" height="26" as="geometry" />
        </mxCell>
        <mxCell id="EZS8QOaWmPaTbYmhqYIM-49" value="User" style="swimlane;fontStyle=1;align=center;verticalAlign=top;childLayout=stackLayout;horizontal=1;startSize=26;horizontalStack=0;resizeParent=1;resizeParentMax=0;resizeLast=0;collapsible=1;marginBottom=0;whiteSpace=wrap;html=1;" vertex="1" parent="1">
          <mxGeometry x="-70" y="1570" width="160" height="86" as="geometry" />
        </mxCell>
        <mxCell id="EZS8QOaWmPaTbYmhqYIM-50" value="+ name: String&amp;nbsp;" style="text;strokeColor=none;fillColor=none;align=left;verticalAlign=top;spacingLeft=4;spacingRight=4;overflow=hidden;rotatable=0;points=[[0,0.5],[1,0.5]];portConstraint=eastwest;whiteSpace=wrap;html=1;" vertex="1" parent="EZS8QOaWmPaTbYmhqYIM-49">
          <mxGeometry y="26" width="160" height="26" as="geometry" />
        </mxCell>
        <mxCell id="EZS8QOaWmPaTbYmhqYIM-51" value="" style="line;strokeWidth=1;fillColor=none;align=left;verticalAlign=middle;spacingTop=-1;spacingLeft=3;spacingRight=3;rotatable=0;labelPosition=right;points=[];portConstraint=eastwest;strokeColor=inherit;" vertex="1" parent="EZS8QOaWmPaTbYmhqYIM-49">
          <mxGeometry y="52" width="160" height="8" as="geometry" />
        </mxCell>
        <mxCell id="EZS8QOaWmPaTbYmhqYIM-52" value="- update(String name): void" style="text;strokeColor=none;fillColor=none;align=left;verticalAlign=top;spacingLeft=4;spacingRight=4;overflow=hidden;rotatable=0;points=[[0,0.5],[1,0.5]];portConstraint=eastwest;whiteSpace=wrap;html=1;" vertex="1" parent="EZS8QOaWmPaTbYmhqYIM-49">
          <mxGeometry y="60" width="160" height="26" as="geometry" />
        </mxCell>
        <mxCell id="EZS8QOaWmPaTbYmhqYIM-53" value="NotificationSystem" style="swimlane;fontStyle=1;align=center;verticalAlign=top;childLayout=stackLayout;horizontal=1;startSize=26;horizontalStack=0;resizeParent=1;resizeParentMax=0;resizeLast=0;collapsible=1;marginBottom=0;whiteSpace=wrap;html=1;" vertex="1" parent="1">
          <mxGeometry x="-390" y="1510" width="230" height="112" as="geometry" />
        </mxCell>
        <mxCell id="EZS8QOaWmPaTbYmhqYIM-54" value="+ observers: List&amp;lt;Observer&amp;gt;" style="text;strokeColor=none;fillColor=none;align=left;verticalAlign=top;spacingLeft=4;spacingRight=4;overflow=hidden;rotatable=0;points=[[0,0.5],[1,0.5]];portConstraint=eastwest;whiteSpace=wrap;html=1;" vertex="1" parent="EZS8QOaWmPaTbYmhqYIM-53">
          <mxGeometry y="26" width="230" height="26" as="geometry" />
        </mxCell>
        <mxCell id="EZS8QOaWmPaTbYmhqYIM-55" value="" style="line;strokeWidth=1;fillColor=none;align=left;verticalAlign=middle;spacingTop=-1;spacingLeft=3;spacingRight=3;rotatable=0;labelPosition=right;points=[];portConstraint=eastwest;strokeColor=inherit;" vertex="1" parent="EZS8QOaWmPaTbYmhqYIM-53">
          <mxGeometry y="52" width="230" height="8" as="geometry" />
        </mxCell>
        <mxCell id="EZS8QOaWmPaTbYmhqYIM-56" value="- subscribe(): void" style="text;strokeColor=none;fillColor=none;align=left;verticalAlign=top;spacingLeft=4;spacingRight=4;overflow=hidden;rotatable=0;points=[[0,0.5],[1,0.5]];portConstraint=eastwest;whiteSpace=wrap;html=1;" vertex="1" parent="EZS8QOaWmPaTbYmhqYIM-53">
          <mxGeometry y="60" width="230" height="26" as="geometry" />
        </mxCell>
        <mxCell id="EZS8QOaWmPaTbYmhqYIM-58" value="- notifyUsers(String message): void" style="text;strokeColor=none;fillColor=none;align=left;verticalAlign=top;spacingLeft=4;spacingRight=4;overflow=hidden;rotatable=0;points=[[0,0.5],[1,0.5]];portConstraint=eastwest;whiteSpace=wrap;html=1;" vertex="1" parent="EZS8QOaWmPaTbYmhqYIM-53">
          <mxGeometry y="86" width="230" height="26" as="geometry" />
        </mxCell>
        <mxCell id="EZS8QOaWmPaTbYmhqYIM-60" value="&amp;lt;&amp;lt;Command&amp;gt;&amp;gt;" style="swimlane;fontStyle=1;align=center;verticalAlign=top;childLayout=stackLayout;horizontal=1;startSize=26;horizontalStack=0;resizeParent=1;resizeParentMax=0;resizeLast=0;collapsible=1;marginBottom=0;whiteSpace=wrap;html=1;" vertex="1" parent="1">
          <mxGeometry x="130" y="1510" width="160" height="60" as="geometry" />
        </mxCell>
        <mxCell id="EZS8QOaWmPaTbYmhqYIM-62" value="" style="line;strokeWidth=1;fillColor=none;align=left;verticalAlign=middle;spacingTop=-1;spacingLeft=3;spacingRight=3;rotatable=0;labelPosition=right;points=[];portConstraint=eastwest;strokeColor=inherit;" vertex="1" parent="EZS8QOaWmPaTbYmhqYIM-60">
          <mxGeometry y="26" width="160" height="8" as="geometry" />
        </mxCell>
        <mxCell id="EZS8QOaWmPaTbYmhqYIM-63" value="- execute(): void" style="text;strokeColor=none;fillColor=none;align=left;verticalAlign=top;spacingLeft=4;spacingRight=4;overflow=hidden;rotatable=0;points=[[0,0.5],[1,0.5]];portConstraint=eastwest;whiteSpace=wrap;html=1;" vertex="1" parent="EZS8QOaWmPaTbYmhqYIM-60">
          <mxGeometry y="34" width="160" height="26" as="geometry" />
        </mxCell>
        <mxCell id="EZS8QOaWmPaTbYmhqYIM-65" value="BookAppointmentCommand" style="swimlane;fontStyle=1;align=center;verticalAlign=top;childLayout=stackLayout;horizontal=1;startSize=26;horizontalStack=0;resizeParent=1;resizeParentMax=0;resizeLast=0;collapsible=1;marginBottom=0;whiteSpace=wrap;html=1;" vertex="1" parent="1">
          <mxGeometry x="750" y="1350" width="260" height="112" as="geometry" />
        </mxCell>
        <mxCell id="EZS8QOaWmPaTbYmhqYIM-66" value="+ facade: SchedulerFacade" style="text;strokeColor=none;fillColor=none;align=left;verticalAlign=top;spacingLeft=4;spacingRight=4;overflow=hidden;rotatable=0;points=[[0,0.5],[1,0.5]];portConstraint=eastwest;whiteSpace=wrap;html=1;" vertex="1" parent="EZS8QOaWmPaTbYmhqYIM-65">
          <mxGeometry y="26" width="260" height="26" as="geometry" />
        </mxCell>
        <mxCell id="EZS8QOaWmPaTbYmhqYIM-69" value="+ appointment: Appointment" style="text;strokeColor=none;fillColor=none;align=left;verticalAlign=top;spacingLeft=4;spacingRight=4;overflow=hidden;rotatable=0;points=[[0,0.5],[1,0.5]];portConstraint=eastwest;whiteSpace=wrap;html=1;" vertex="1" parent="EZS8QOaWmPaTbYmhqYIM-65">
          <mxGeometry y="52" width="260" height="26" as="geometry" />
        </mxCell>
        <mxCell id="EZS8QOaWmPaTbYmhqYIM-67" value="" style="line;strokeWidth=1;fillColor=none;align=left;verticalAlign=middle;spacingTop=-1;spacingLeft=3;spacingRight=3;rotatable=0;labelPosition=right;points=[];portConstraint=eastwest;strokeColor=inherit;" vertex="1" parent="EZS8QOaWmPaTbYmhqYIM-65">
          <mxGeometry y="78" width="260" height="8" as="geometry" />
        </mxCell>
        <mxCell id="EZS8QOaWmPaTbYmhqYIM-68" value="- execute(): void" style="text;strokeColor=none;fillColor=none;align=left;verticalAlign=top;spacingLeft=4;spacingRight=4;overflow=hidden;rotatable=0;points=[[0,0.5],[1,0.5]];portConstraint=eastwest;whiteSpace=wrap;html=1;" vertex="1" parent="EZS8QOaWmPaTbYmhqYIM-65">
          <mxGeometry y="86" width="260" height="26" as="geometry" />
        </mxCell>
        <mxCell id="EZS8QOaWmPaTbYmhqYIM-70" value="&amp;lt;&amp;lt;SchedulingStrategy&amp;gt;&amp;gt;" style="swimlane;fontStyle=1;align=center;verticalAlign=top;childLayout=stackLayout;horizontal=1;startSize=26;horizontalStack=0;resizeParent=1;resizeParentMax=0;resizeLast=0;collapsible=1;marginBottom=0;whiteSpace=wrap;html=1;" vertex="1" parent="1">
          <mxGeometry x="310" y="1670" width="250" height="60" as="geometry" />
        </mxCell>
        <mxCell id="EZS8QOaWmPaTbYmhqYIM-72" value="" style="line;strokeWidth=1;fillColor=none;align=left;verticalAlign=middle;spacingTop=-1;spacingLeft=3;spacingRight=3;rotatable=0;labelPosition=right;points=[];portConstraint=eastwest;strokeColor=inherit;" vertex="1" parent="EZS8QOaWmPaTbYmhqYIM-70">
          <mxGeometry y="26" width="250" height="8" as="geometry" />
        </mxCell>
        <mxCell id="EZS8QOaWmPaTbYmhqYIM-73" value="- schedule(Appointment appointment): void" style="text;strokeColor=none;fillColor=none;align=left;verticalAlign=top;spacingLeft=4;spacingRight=4;overflow=hidden;rotatable=0;points=[[0,0.5],[1,0.5]];portConstraint=eastwest;whiteSpace=wrap;html=1;" vertex="1" parent="EZS8QOaWmPaTbYmhqYIM-70">
          <mxGeometry y="34" width="250" height="26" as="geometry" />
        </mxCell>
        <mxCell id="EZS8QOaWmPaTbYmhqYIM-74" value="FirstComeFirstServeStrategy" style="swimlane;fontStyle=1;align=center;verticalAlign=top;childLayout=stackLayout;horizontal=1;startSize=26;horizontalStack=0;resizeParent=1;resizeParentMax=0;resizeLast=0;collapsible=1;marginBottom=0;whiteSpace=wrap;html=1;" vertex="1" parent="1">
          <mxGeometry x="20" y="1780" width="340" height="60" as="geometry" />
        </mxCell>
        <mxCell id="EZS8QOaWmPaTbYmhqYIM-76" value="" style="line;strokeWidth=1;fillColor=none;align=left;verticalAlign=middle;spacingTop=-1;spacingLeft=3;spacingRight=3;rotatable=0;labelPosition=right;points=[];portConstraint=eastwest;strokeColor=inherit;" vertex="1" parent="EZS8QOaWmPaTbYmhqYIM-74">
          <mxGeometry y="26" width="340" height="8" as="geometry" />
        </mxCell>
        <mxCell id="EZS8QOaWmPaTbYmhqYIM-77" value="- schedule(Appointment appointment): void" style="text;strokeColor=none;fillColor=none;align=left;verticalAlign=top;spacingLeft=4;spacingRight=4;overflow=hidden;rotatable=0;points=[[0,0.5],[1,0.5]];portConstraint=eastwest;whiteSpace=wrap;html=1;" vertex="1" parent="EZS8QOaWmPaTbYmhqYIM-74">
          <mxGeometry y="34" width="340" height="26" as="geometry" />
        </mxCell>
        <mxCell id="EZS8QOaWmPaTbYmhqYIM-78" value="PriorityBasedStrategy" style="swimlane;fontStyle=1;align=center;verticalAlign=top;childLayout=stackLayout;horizontal=1;startSize=26;horizontalStack=0;resizeParent=1;resizeParentMax=0;resizeLast=0;collapsible=1;marginBottom=0;whiteSpace=wrap;html=1;" vertex="1" parent="1">
          <mxGeometry x="454" y="1790" width="340" height="60" as="geometry" />
        </mxCell>
        <mxCell id="EZS8QOaWmPaTbYmhqYIM-79" value="" style="line;strokeWidth=1;fillColor=none;align=left;verticalAlign=middle;spacingTop=-1;spacingLeft=3;spacingRight=3;rotatable=0;labelPosition=right;points=[];portConstraint=eastwest;strokeColor=inherit;" vertex="1" parent="EZS8QOaWmPaTbYmhqYIM-78">
          <mxGeometry y="26" width="340" height="8" as="geometry" />
        </mxCell>
        <mxCell id="EZS8QOaWmPaTbYmhqYIM-80" value="- schedule(Appointment appointment): void" style="text;strokeColor=none;fillColor=none;align=left;verticalAlign=top;spacingLeft=4;spacingRight=4;overflow=hidden;rotatable=0;points=[[0,0.5],[1,0.5]];portConstraint=eastwest;whiteSpace=wrap;html=1;" vertex="1" parent="EZS8QOaWmPaTbYmhqYIM-78">
          <mxGeometry y="34" width="340" height="26" as="geometry" />
        </mxCell>
        <mxCell id="EZS8QOaWmPaTbYmhqYIM-81" value="SchedulerFacade" style="swimlane;fontStyle=1;align=center;verticalAlign=top;childLayout=stackLayout;horizontal=1;startSize=26;horizontalStack=0;resizeParent=1;resizeParentMax=0;resizeLast=0;collapsible=1;marginBottom=0;whiteSpace=wrap;html=1;" vertex="1" parent="1">
          <mxGeometry x="210" y="1070" width="370" height="60" as="geometry" />
        </mxCell>
        <mxCell id="EZS8QOaWmPaTbYmhqYIM-83" value="" style="line;strokeWidth=1;fillColor=none;align=left;verticalAlign=middle;spacingTop=-1;spacingLeft=3;spacingRight=3;rotatable=0;labelPosition=right;points=[];portConstraint=eastwest;strokeColor=inherit;" vertex="1" parent="EZS8QOaWmPaTbYmhqYIM-81">
          <mxGeometry y="26" width="370" height="8" as="geometry" />
        </mxCell>
        <mxCell id="EZS8QOaWmPaTbYmhqYIM-84" value="- bookAppointment(Appoitnemnt appointment): void" style="text;strokeColor=none;fillColor=none;align=left;verticalAlign=top;spacingLeft=4;spacingRight=4;overflow=hidden;rotatable=0;points=[[0,0.5],[1,0.5]];portConstraint=eastwest;whiteSpace=wrap;html=1;" vertex="1" parent="EZS8QOaWmPaTbYmhqYIM-81">
          <mxGeometry y="34" width="370" height="26" as="geometry" />
        </mxCell>
        <mxCell id="EZS8QOaWmPaTbYmhqYIM-85" value="GoogleCalendarAPI" style="swimlane;fontStyle=1;align=center;verticalAlign=top;childLayout=stackLayout;horizontal=1;startSize=26;horizontalStack=0;resizeParent=1;resizeParentMax=0;resizeLast=0;collapsible=1;marginBottom=0;whiteSpace=wrap;html=1;" vertex="1" parent="1">
          <mxGeometry x="-10" y="1210" width="370" height="60" as="geometry" />
        </mxCell>
        <mxCell id="EZS8QOaWmPaTbYmhqYIM-86" value="" style="line;strokeWidth=1;fillColor=none;align=left;verticalAlign=middle;spacingTop=-1;spacingLeft=3;spacingRight=3;rotatable=0;labelPosition=right;points=[];portConstraint=eastwest;strokeColor=inherit;" vertex="1" parent="EZS8QOaWmPaTbYmhqYIM-85">
          <mxGeometry y="26" width="370" height="8" as="geometry" />
        </mxCell>
        <mxCell id="EZS8QOaWmPaTbYmhqYIM-87" value="- addEvent(String details, Date date): void" style="text;strokeColor=none;fillColor=none;align=left;verticalAlign=top;spacingLeft=4;spacingRight=4;overflow=hidden;rotatable=0;points=[[0,0.5],[1,0.5]];portConstraint=eastwest;whiteSpace=wrap;html=1;" vertex="1" parent="EZS8QOaWmPaTbYmhqYIM-85">
          <mxGeometry y="34" width="370" height="26" as="geometry" />
        </mxCell>
        <mxCell id="EZS8QOaWmPaTbYmhqYIM-95" value="CalendarAdapter" style="swimlane;fontStyle=1;align=center;verticalAlign=top;childLayout=stackLayout;horizontal=1;startSize=26;horizontalStack=0;resizeParent=1;resizeParentMax=0;resizeLast=0;collapsible=1;marginBottom=0;whiteSpace=wrap;html=1;" vertex="1" parent="1">
          <mxGeometry x="280" y="1336" width="350" height="86" as="geometry" />
        </mxCell>
        <mxCell id="EZS8QOaWmPaTbYmhqYIM-96" value="+ googleCalendar: GoogleCalendarAPI" style="text;strokeColor=none;fillColor=none;align=left;verticalAlign=top;spacingLeft=4;spacingRight=4;overflow=hidden;rotatable=0;points=[[0,0.5],[1,0.5]];portConstraint=eastwest;whiteSpace=wrap;html=1;" vertex="1" parent="EZS8QOaWmPaTbYmhqYIM-95">
          <mxGeometry y="26" width="350" height="26" as="geometry" />
        </mxCell>
        <mxCell id="EZS8QOaWmPaTbYmhqYIM-97" value="" style="line;strokeWidth=1;fillColor=none;align=left;verticalAlign=middle;spacingTop=-1;spacingLeft=3;spacingRight=3;rotatable=0;labelPosition=right;points=[];portConstraint=eastwest;strokeColor=inherit;" vertex="1" parent="EZS8QOaWmPaTbYmhqYIM-95">
          <mxGeometry y="52" width="350" height="8" as="geometry" />
        </mxCell>
        <mxCell id="EZS8QOaWmPaTbYmhqYIM-98" value="- syncAppointment(Appointment appointment): void" style="text;strokeColor=none;fillColor=none;align=left;verticalAlign=top;spacingLeft=4;spacingRight=4;overflow=hidden;rotatable=0;points=[[0,0.5],[1,0.5]];portConstraint=eastwest;whiteSpace=wrap;html=1;" vertex="1" parent="EZS8QOaWmPaTbYmhqYIM-95">
          <mxGeometry y="60" width="350" height="26" as="geometry" />
        </mxCell>
        <mxCell id="EZS8QOaWmPaTbYmhqYIM-99" value="&amp;lt;&amp;lt;IUser&amp;gt;&amp;gt;" style="swimlane;fontStyle=1;align=center;verticalAlign=top;childLayout=stackLayout;horizontal=1;startSize=26;horizontalStack=0;resizeParent=1;resizeParentMax=0;resizeLast=0;collapsible=1;marginBottom=0;whiteSpace=wrap;html=1;" vertex="1" parent="1">
          <mxGeometry x="1030" y="690" width="160" height="60" as="geometry" />
        </mxCell>
        <mxCell id="EZS8QOaWmPaTbYmhqYIM-101" value="" style="line;strokeWidth=1;fillColor=none;align=left;verticalAlign=middle;spacingTop=-1;spacingLeft=3;spacingRight=3;rotatable=0;labelPosition=right;points=[];portConstraint=eastwest;strokeColor=inherit;" vertex="1" parent="EZS8QOaWmPaTbYmhqYIM-99">
          <mxGeometry y="26" width="160" height="8" as="geometry" />
        </mxCell>
        <mxCell id="EZS8QOaWmPaTbYmhqYIM-102" value="- showDetail(): void" style="text;strokeColor=none;fillColor=none;align=left;verticalAlign=top;spacingLeft=4;spacingRight=4;overflow=hidden;rotatable=0;points=[[0,0.5],[1,0.5]];portConstraint=eastwest;whiteSpace=wrap;html=1;" vertex="1" parent="EZS8QOaWmPaTbYmhqYIM-99">
          <mxGeometry y="34" width="160" height="26" as="geometry" />
        </mxCell>
        <mxCell id="EZS8QOaWmPaTbYmhqYIM-103" value="RealUser" style="swimlane;fontStyle=1;align=center;verticalAlign=top;childLayout=stackLayout;horizontal=1;startSize=26;horizontalStack=0;resizeParent=1;resizeParentMax=0;resizeLast=0;collapsible=1;marginBottom=0;whiteSpace=wrap;html=1;" vertex="1" parent="1">
          <mxGeometry x="827" y="940" width="160" height="86" as="geometry" />
        </mxCell>
        <mxCell id="EZS8QOaWmPaTbYmhqYIM-104" value="+ name: String" style="text;strokeColor=none;fillColor=none;align=left;verticalAlign=top;spacingLeft=4;spacingRight=4;overflow=hidden;rotatable=0;points=[[0,0.5],[1,0.5]];portConstraint=eastwest;whiteSpace=wrap;html=1;" vertex="1" parent="EZS8QOaWmPaTbYmhqYIM-103">
          <mxGeometry y="26" width="160" height="26" as="geometry" />
        </mxCell>
        <mxCell id="EZS8QOaWmPaTbYmhqYIM-105" value="" style="line;strokeWidth=1;fillColor=none;align=left;verticalAlign=middle;spacingTop=-1;spacingLeft=3;spacingRight=3;rotatable=0;labelPosition=right;points=[];portConstraint=eastwest;strokeColor=inherit;" vertex="1" parent="EZS8QOaWmPaTbYmhqYIM-103">
          <mxGeometry y="52" width="160" height="8" as="geometry" />
        </mxCell>
        <mxCell id="EZS8QOaWmPaTbYmhqYIM-106" value="- showDetail(): void" style="text;strokeColor=none;fillColor=none;align=left;verticalAlign=top;spacingLeft=4;spacingRight=4;overflow=hidden;rotatable=0;points=[[0,0.5],[1,0.5]];portConstraint=eastwest;whiteSpace=wrap;html=1;" vertex="1" parent="EZS8QOaWmPaTbYmhqYIM-103">
          <mxGeometry y="60" width="160" height="26" as="geometry" />
        </mxCell>
        <mxCell id="EZS8QOaWmPaTbYmhqYIM-107" value="UserProxy" style="swimlane;fontStyle=1;align=center;verticalAlign=top;childLayout=stackLayout;horizontal=1;startSize=26;horizontalStack=0;resizeParent=1;resizeParentMax=0;resizeLast=0;collapsible=1;marginBottom=0;whiteSpace=wrap;html=1;" vertex="1" parent="1">
          <mxGeometry x="1310" y="970" width="160" height="86" as="geometry" />
        </mxCell>
        <mxCell id="EZS8QOaWmPaTbYmhqYIM-108" value="+ realUser: RealUser" style="text;strokeColor=none;fillColor=none;align=left;verticalAlign=top;spacingLeft=4;spacingRight=4;overflow=hidden;rotatable=0;points=[[0,0.5],[1,0.5]];portConstraint=eastwest;whiteSpace=wrap;html=1;" vertex="1" parent="EZS8QOaWmPaTbYmhqYIM-107">
          <mxGeometry y="26" width="160" height="26" as="geometry" />
        </mxCell>
        <mxCell id="EZS8QOaWmPaTbYmhqYIM-109" value="" style="line;strokeWidth=1;fillColor=none;align=left;verticalAlign=middle;spacingTop=-1;spacingLeft=3;spacingRight=3;rotatable=0;labelPosition=right;points=[];portConstraint=eastwest;strokeColor=inherit;" vertex="1" parent="EZS8QOaWmPaTbYmhqYIM-107">
          <mxGeometry y="52" width="160" height="8" as="geometry" />
        </mxCell>
        <mxCell id="EZS8QOaWmPaTbYmhqYIM-110" value="- showDetails(): void" style="text;strokeColor=none;fillColor=none;align=left;verticalAlign=top;spacingLeft=4;spacingRight=4;overflow=hidden;rotatable=0;points=[[0,0.5],[1,0.5]];portConstraint=eastwest;whiteSpace=wrap;html=1;" vertex="1" parent="EZS8QOaWmPaTbYmhqYIM-107">
          <mxGeometry y="60" width="160" height="26" as="geometry" />
        </mxCell>
        <mxCell id="EZS8QOaWmPaTbYmhqYIM-111" value="Extends" style="endArrow=block;endSize=16;endFill=0;html=1;rounded=0;exitX=0.5;exitY=0;exitDx=0;exitDy=0;entryX=0.84;entryY=1.051;entryDx=0;entryDy=0;entryPerimeter=0;" edge="1" parent="1" source="EZS8QOaWmPaTbYmhqYIM-15" target="EZS8QOaWmPaTbYmhqYIM-14">
          <mxGeometry width="160" relative="1" as="geometry">
            <mxPoint x="110" y="500" as="sourcePoint" />
            <mxPoint x="270" y="500" as="targetPoint" />
          </mxGeometry>
        </mxCell>
        <mxCell id="EZS8QOaWmPaTbYmhqYIM-112" value="Extends" style="endArrow=block;endSize=16;endFill=0;html=1;rounded=0;entryX=0.223;entryY=1.154;entryDx=0;entryDy=0;entryPerimeter=0;exitX=0.5;exitY=0;exitDx=0;exitDy=0;" edge="1" parent="1" source="EZS8QOaWmPaTbYmhqYIM-19" target="EZS8QOaWmPaTbYmhqYIM-14">
          <mxGeometry width="160" relative="1" as="geometry">
            <mxPoint x="390" y="930" as="sourcePoint" />
            <mxPoint x="550" y="930" as="targetPoint" />
          </mxGeometry>
        </mxCell>
        <mxCell id="EZS8QOaWmPaTbYmhqYIM-113" value="" style="endArrow=block;dashed=1;endFill=0;endSize=12;html=1;rounded=0;exitX=0.5;exitY=0;exitDx=0;exitDy=0;" edge="1" parent="1" source="EZS8QOaWmPaTbYmhqYIM-74" target="EZS8QOaWmPaTbYmhqYIM-73">
          <mxGeometry width="160" relative="1" as="geometry">
            <mxPoint x="320" y="1060" as="sourcePoint" />
            <mxPoint x="580" y="1030" as="targetPoint" />
          </mxGeometry>
        </mxCell>
        <mxCell id="EZS8QOaWmPaTbYmhqYIM-114" value="" style="endArrow=block;dashed=1;endFill=0;endSize=12;html=1;rounded=0;exitX=0.5;exitY=0;exitDx=0;exitDy=0;entryX=0.703;entryY=1.179;entryDx=0;entryDy=0;entryPerimeter=0;" edge="1" parent="1" source="EZS8QOaWmPaTbYmhqYIM-78" target="EZS8QOaWmPaTbYmhqYIM-73">
          <mxGeometry width="160" relative="1" as="geometry">
            <mxPoint x="490" y="1480" as="sourcePoint" />
            <mxPoint x="650" y="1480" as="targetPoint" />
          </mxGeometry>
        </mxCell>
        <mxCell id="EZS8QOaWmPaTbYmhqYIM-115" value="" style="endArrow=block;dashed=1;endFill=0;endSize=12;html=1;rounded=0;entryX=1.023;entryY=-0.103;entryDx=0;entryDy=0;entryPerimeter=0;exitX=0;exitY=0.5;exitDx=0;exitDy=0;" edge="1" parent="1" source="EZS8QOaWmPaTbYmhqYIM-69" target="EZS8QOaWmPaTbYmhqYIM-63">
          <mxGeometry width="160" relative="1" as="geometry">
            <mxPoint x="560" y="1390" as="sourcePoint" />
            <mxPoint x="720" y="1390" as="targetPoint" />
          </mxGeometry>
        </mxCell>
        <mxCell id="EZS8QOaWmPaTbYmhqYIM-116" value="" style="endArrow=block;dashed=1;endFill=0;endSize=12;html=1;rounded=0;entryX=0.634;entryY=0.978;entryDx=0;entryDy=0;entryPerimeter=0;exitX=0.5;exitY=0;exitDx=0;exitDy=0;" edge="1" parent="1" source="EZS8QOaWmPaTbYmhqYIM-49" target="EZS8QOaWmPaTbYmhqYIM-48">
          <mxGeometry width="160" relative="1" as="geometry">
            <mxPoint x="680" y="1280" as="sourcePoint" />
            <mxPoint x="840" y="1280" as="targetPoint" />
          </mxGeometry>
        </mxCell>
        <mxCell id="EZS8QOaWmPaTbYmhqYIM-117" value="" style="endArrow=block;dashed=1;endFill=0;endSize=12;html=1;rounded=0;entryX=0.326;entryY=1.033;entryDx=0;entryDy=0;entryPerimeter=0;exitX=0.5;exitY=0;exitDx=0;exitDy=0;" edge="1" parent="1" source="EZS8QOaWmPaTbYmhqYIM-103" target="EZS8QOaWmPaTbYmhqYIM-102">
          <mxGeometry width="160" relative="1" as="geometry">
            <mxPoint x="1100" y="1320" as="sourcePoint" />
            <mxPoint x="940" y="1320" as="targetPoint" />
          </mxGeometry>
        </mxCell>
        <mxCell id="EZS8QOaWmPaTbYmhqYIM-118" value="" style="endArrow=block;dashed=1;endFill=0;endSize=12;html=1;rounded=0;entryX=0.754;entryY=1.077;entryDx=0;entryDy=0;entryPerimeter=0;exitX=0.5;exitY=0;exitDx=0;exitDy=0;" edge="1" parent="1" source="EZS8QOaWmPaTbYmhqYIM-107" target="EZS8QOaWmPaTbYmhqYIM-102">
          <mxGeometry width="160" relative="1" as="geometry">
            <mxPoint x="1050" y="1290" as="sourcePoint" />
            <mxPoint x="840" y="1280" as="targetPoint" />
          </mxGeometry>
        </mxCell>
        <mxCell id="EZS8QOaWmPaTbYmhqYIM-120" value="" style="endArrow=diamondThin;endFill=1;endSize=24;html=1;rounded=0;entryX=0.199;entryY=1.055;entryDx=0;entryDy=0;entryPerimeter=0;exitX=0.564;exitY=0.013;exitDx=0;exitDy=0;exitPerimeter=0;" edge="1" parent="1" source="EZS8QOaWmPaTbYmhqYIM-53" target="EZS8QOaWmPaTbYmhqYIM-48">
          <mxGeometry width="160" relative="1" as="geometry">
            <mxPoint x="550" y="1276" as="sourcePoint" />
            <mxPoint x="410" y="1050" as="targetPoint" />
          </mxGeometry>
        </mxCell>
        <mxCell id="EZS8QOaWmPaTbYmhqYIM-119" value="" style="endArrow=diamondThin;endFill=1;endSize=24;html=1;rounded=0;exitX=1;exitY=0.5;exitDx=0;exitDy=0;entryX=0;entryY=0.5;entryDx=0;entryDy=0;" edge="1" parent="1" source="EZS8QOaWmPaTbYmhqYIM-40" target="EZS8QOaWmPaTbYmhqYIM-11">
          <mxGeometry width="160" relative="1" as="geometry">
            <mxPoint x="110" y="670" as="sourcePoint" />
            <mxPoint x="140" y="650" as="targetPoint" />
          </mxGeometry>
        </mxCell>
        <mxCell id="EZS8QOaWmPaTbYmhqYIM-121" value="" style="endArrow=diamondThin;endFill=1;endSize=24;html=1;rounded=0;exitX=-0.007;exitY=-0.185;exitDx=0;exitDy=0;entryX=0.526;entryY=1.108;entryDx=0;entryDy=0;entryPerimeter=0;exitPerimeter=0;" edge="1" parent="1" source="EZS8QOaWmPaTbYmhqYIM-66" target="EZS8QOaWmPaTbYmhqYIM-84">
          <mxGeometry width="160" relative="1" as="geometry">
            <mxPoint x="700" y="1590" as="sourcePoint" />
            <mxPoint x="860" y="1590" as="targetPoint" />
          </mxGeometry>
        </mxCell>
        <mxCell id="EZS8QOaWmPaTbYmhqYIM-122" value="" style="endArrow=diamondThin;endFill=1;endSize=24;html=1;rounded=0;exitX=0.447;exitY=0.013;exitDx=0;exitDy=0;exitPerimeter=0;entryX=0.594;entryY=1.187;entryDx=0;entryDy=0;entryPerimeter=0;" edge="1" parent="1" source="EZS8QOaWmPaTbYmhqYIM-65" target="EZS8QOaWmPaTbYmhqYIM-14">
          <mxGeometry width="160" relative="1" as="geometry">
            <mxPoint x="650" y="1400" as="sourcePoint" />
            <mxPoint x="810" y="1400" as="targetPoint" />
          </mxGeometry>
        </mxCell>
        <mxCell id="EZS8QOaWmPaTbYmhqYIM-123" value="" style="endArrow=diamondThin;endFill=1;endSize=24;html=1;rounded=0;exitX=0;exitY=0.5;exitDx=0;exitDy=0;entryX=0.459;entryY=1.066;entryDx=0;entryDy=0;entryPerimeter=0;" edge="1" parent="1" source="EZS8QOaWmPaTbYmhqYIM-96" target="EZS8QOaWmPaTbYmhqYIM-87">
          <mxGeometry width="160" relative="1" as="geometry">
            <mxPoint x="980" y="1550" as="sourcePoint" />
            <mxPoint x="1140" y="1550" as="targetPoint" />
          </mxGeometry>
        </mxCell>
        <mxCell id="EZS8QOaWmPaTbYmhqYIM-128" value="" style="endArrow=diamondThin;endFill=0;endSize=24;html=1;rounded=0;exitX=0.85;exitY=1.009;exitDx=0;exitDy=0;exitPerimeter=0;entryX=0;entryY=0.5;entryDx=0;entryDy=0;" edge="1" parent="1" source="EZS8QOaWmPaTbYmhqYIM-143" target="EZS8QOaWmPaTbYmhqYIM-81">
          <mxGeometry width="160" relative="1" as="geometry">
            <mxPoint x="190" y="1410" as="sourcePoint" />
            <mxPoint x="350" y="1410" as="targetPoint" />
          </mxGeometry>
        </mxCell>
        <mxCell id="EZS8QOaWmPaTbYmhqYIM-129" value="" style="endArrow=diamondThin;endFill=0;endSize=24;html=1;rounded=0;exitX=0.338;exitY=1.039;exitDx=0;exitDy=0;exitPerimeter=0;" edge="1" parent="1" source="EZS8QOaWmPaTbYmhqYIM-143" target="EZS8QOaWmPaTbYmhqYIM-53">
          <mxGeometry width="160" relative="1" as="geometry">
            <mxPoint x="-185.92000000000007" y="1026.5720000000001" as="sourcePoint" />
            <mxPoint x="800" y="1600" as="targetPoint" />
          </mxGeometry>
        </mxCell>
        <mxCell id="EZS8QOaWmPaTbYmhqYIM-130" value="" style="endArrow=diamondThin;endFill=0;endSize=24;html=1;rounded=0;exitX=1;exitY=0.25;exitDx=0;exitDy=0;entryX=-0.004;entryY=0;entryDx=0;entryDy=0;entryPerimeter=0;" edge="1" parent="1" source="EZS8QOaWmPaTbYmhqYIM-143" target="EZS8QOaWmPaTbYmhqYIM-35">
          <mxGeometry width="160" relative="1" as="geometry">
            <mxPoint x="260" y="1600" as="sourcePoint" />
            <mxPoint x="420" y="1600" as="targetPoint" />
          </mxGeometry>
        </mxCell>
        <mxCell id="EZS8QOaWmPaTbYmhqYIM-132" value="Use" style="endArrow=open;endSize=12;dashed=1;html=1;rounded=0;exitX=0.003;exitY=0.934;exitDx=0;exitDy=0;exitPerimeter=0;entryX=1;entryY=0.5;entryDx=0;entryDy=0;" edge="1" parent="1" source="EZS8QOaWmPaTbYmhqYIM-108" target="EZS8QOaWmPaTbYmhqYIM-104">
          <mxGeometry width="160" relative="1" as="geometry">
            <mxPoint x="950" y="1520" as="sourcePoint" />
            <mxPoint x="1110" y="1520" as="targetPoint" />
          </mxGeometry>
        </mxCell>
        <mxCell id="EZS8QOaWmPaTbYmhqYIM-134" value="Use" style="endArrow=open;endSize=12;dashed=1;html=1;rounded=0;exitX=0.25;exitY=0;exitDx=0;exitDy=0;entryX=0.42;entryY=1.055;entryDx=0;entryDy=0;entryPerimeter=0;" edge="1" parent="1" source="EZS8QOaWmPaTbYmhqYIM-31" target="EZS8QOaWmPaTbYmhqYIM-30">
          <mxGeometry width="160" relative="1" as="geometry">
            <mxPoint x="140" y="760" as="sourcePoint" />
            <mxPoint x="300" y="760" as="targetPoint" />
          </mxGeometry>
        </mxCell>
        <mxCell id="EZS8QOaWmPaTbYmhqYIM-143" value="Appointment GUI" style="html=1;whiteSpace=wrap;" vertex="1" parent="1">
          <mxGeometry x="-255" y="832" width="110" height="50" as="geometry" />
        </mxCell>
      </root>
    </mxGraphModel>
  </diagram>
</mxfile>
